<?xml version="1.0" standalone="no"?>
<!DOCTYPE svg PUBLIC "-//W3C//DTD SVG 20010904//EN"
 "http://www.w3.org/TR/2001/REC-SVG-20010904/DTD/svg10.dtd">
<svg version="1.0" xmlns="http://www.w3.org/2000/svg"
 width="444.000000pt" height="444.000000pt" viewBox="0 0 444.000000 444.000000"
 preserveAspectRatio="xMidYMid meet">
<metadata>
Created by potrace 1.11, written by Peter Selinger 2001-2013
</metadata>
<g transform="translate(0.000000,444.000000) scale(0.100000,-0.100000)"
fill="#000000" stroke="none">
<path d="M2303 4309 c-267 -45 -473 -284 -473 -551 0 -93 16 -160 58 -248 32
-67 56 -95 227 -265 206 -204 274 -292 354 -459 85 -178 121 -332 121 -520 -1
-488 -202 -952 -514 -1183 -66 -49 -102 -54 -133 -20 -46 49 -32 87 63 172
215 193 359 456 410 745 21 123 14 355 -15 482 -71 311 -265 598 -518 766 -49
32 -65 37 -128 40 -77 4 -107 -5 -173 -55 -65 -49 -97 -159 -72 -250 11 -42
30 -64 141 -172 71 -68 146 -151 169 -185 80 -124 120 -267 120 -428 -1 -229
-75 -389 -285 -608 -171 -179 -213 -259 -222 -431 -6 -111 5 -175 48 -264 65
-137 198 -252 342 -297 91 -29 233 -30 322 -4 73 21 174 75 235 125 269 217
489 537 600 867 79 237 105 423 97 683 -5 177 -17 266 -56 418 -94 367 -320
729 -609 976 -78 66 -92 83 -92 108 0 37 39 79 74 79 32 0 109 -61 232 -186
333 -339 525 -712 589 -1149 21 -143 21 -412 0 -570 -76 -568 -302 -975 -754
-1353 -130 -108 -161 -157 -161 -250 0 -128 103 -235 230 -236 77 0 118 17
213 86 95 70 322 296 420 418 293 365 463 752 534 1210 25 162 25 575 0 745
-70 475 -236 863 -523 1225 -82 103 -302 325 -400 403 -89 71 -197 122 -291
136 -81 12 -106 12 -180 0z"/>
<path d="M982 2810 c-230 -60 -410 -239 -467 -465 -18 -70 -20 -222 -4 -297
34 -159 157 -328 303 -413 161 -94 409 -109 581 -35 68 29 157 93 204 146 129
147 63 363 -124 404 -84 19 -146 1 -223 -64 -81 -67 -145 -68 -217 -4 -61 53
-67 135 -14 202 52 66 123 72 230 21 123 -59 234 -44 308 40 45 52 61 94 61
162 -1 110 -60 187 -195 254 -140 69 -299 86 -443 49z"/>
</g>
</svg>
