<?xml version="1.0" encoding="utf-8"?>
<!-- Generator: Adobe Illustrator 22.1.0, SVG Export Plug-In . SVG Version: 6.00 Build 0)  -->
<svg version="1.1" xmlns="http://www.w3.org/2000/svg" xmlns:xlink="http://www.w3.org/1999/xlink" x="0px" y="0px"
	 viewBox="0 0 96 96" style="enable-background:new 0 0 96 96;" xml:space="preserve">
<style type="text/css">
	.st0{fill:#FFFFFF;}
	.st1{fill:#052049;}
</style>
<g id="Layer_1">
	<g>
		<rect y="0" class="st0" width="96" height="96"/>
	</g>
	<path class="st1" d="M88.3,42.3v-3H77v10.9c0-1.3-0.5-2.3-1.4-3c-0.6-0.5-1.5-0.9-2.8-1.2l-2.8-0.7C69,45.2,68.3,45,68,44.8
		c-0.3-0.1-0.5-0.4-0.6-0.7l0,0l0,0l0,0c-0.1-0.2-0.1-0.4-0.1-0.6c0-0.5,0.2-0.9,0.5-1.2l0,0l0,0l0,0l0,0c0.1,0,0.1-0.1,0.2-0.2
		c0.5-0.3,1.2-0.5,2.1-0.5c0.8,0,1.4,0.1,2,0.4c0.8,0.4,1.2,1.1,1.3,2.1h3.2c0-1.7-0.7-3-1.9-3.9c-1.2-0.9-2.6-1.3-4.4-1.3
		c-2,0-3.6,0.5-4.7,1.4c-0.6,0.6-1.1,1.2-1.3,2l0,0c0,0.1-0.1,0.3-0.1,0.5l0,0c-0.4,1.8-1.6,3.1-3.5,3.1c-3.2,0-4.4-2.7-4.4-5.4
		c0-2.8,1.2-5.5,4.4-5.5c1.8,0,3.3,1.2,3.5,2.8h3.4c-0.4-3.7-3.4-5.8-6.9-5.8c-4.7,0-7.6,3.4-7.9,7.8v-7.4h-3.5v10
		c0,2.4-0.8,3.5-3.3,3.5c-2.9,0-3.3-1.7-3.3-3.5v-10h-3.5v10c0,4.4,2.5,6.5,6.9,6.5c4.3,0,6.9-2.1,6.9-6.5v-1.2
		c0.2,4.3,3.1,7.7,7.9,7.7c2,0,3.6-0.6,4.8-1.7c0.1,0,0.1,0.1,0.2,0.2c0.6,0.4,1.8,0.9,3.5,1.2l1.7,0.4c1,0.2,1.7,0.5,2.2,0.8
		c0.5,0.3,0.7,0.7,0.7,1.2c0,0.9-0.5,1.5-1.4,1.9c-0.5,0.2-1.2,0.2-2,0.2c-1.3,0-2.3-0.3-2.8-1c-0.3-0.4-0.5-0.9-0.6-1.6h-3.2
		c0,1.7,0.6,3,1.8,3.9c1.2,1,2.9,1.4,4.9,1.4s3.6-0.5,4.8-1.4c1.1-0.9,1.6-2,1.7-3.3v4.5h3.5v-6.8h6.7V46h-6.7v-3.7L88.3,42.3
		L88.3,42.3z"/>
</g>
<g id="Layer_2">
</g>
</svg>
